<svg xmlns="http://www.w3.org/2000/svg" width="148" height="148" fill="none" viewBox="0 0 148 148"><rect width="148" height="148" fill="url(#paint0_linear_4824_6147)" rx="20"/><path fill="url(#paint1_linear_4824_6147)" d="M41 53C41 51.3432 42.3432 50 44 50H104C105.657 50 107 51.3432 107 53V95C107 96.6569 105.657 98 104 98H44C42.3432 98 41 96.6569 41 95V53ZM77 62V68H95V62H77ZM92 74H77V80H92V74ZM69.5 68C69.5 63.8579 66.1421 60.5 62 60.5C57.8579 60.5 54.5 63.8579 54.5 68C54.5 72.1421 57.8579 75.5 62 75.5C66.1421 75.5 69.5 72.1421 69.5 68ZM62 78.5C56.201 78.5 51.5 83.201 51.5 89H72.5C72.5 83.201 67.799 78.5 62 78.5Z"/><defs><linearGradient id="paint0_linear_4824_6147" x1="-2.269" x2="129.338" y1="47.422" y2="105.66" gradientUnits="userSpaceOnUse"><stop stop-color="#131313"/><stop offset="1" stop-color="#373636"/></linearGradient><linearGradient id="paint1_linear_4824_6147" x1="45.687" x2="89.171" y1="67.277" y2="67.309" gradientUnits="userSpaceOnUse"><stop stop-color="#F4C587"/><stop offset=".5" stop-color="#D6D3E9"/><stop offset="1" stop-color="#99D2EC"/></linearGradient></defs></svg>