<svg xmlns="http://www.w3.org/2000/svg" width="32" height="32" fill="none" viewBox="0 0 32 32"><path stroke="url(#paint0_linear_3392_1513)" stroke-linejoin="round" stroke-width="1.333" d="M2.66699 24V27.3333C2.66699 28.8061 3.8609 30 5.33366 30H8.66699"/><path stroke="url(#paint1_linear_3392_1513)" stroke-linejoin="round" stroke-width="1.333" d="M30.001 24V27.3333C30.001 28.8061 28.8071 30 27.3343 30H24.001"/><path stroke="url(#paint2_linear_3392_1513)" stroke-linejoin="round" stroke-width="1.333" d="M30.001 8.66675V5.33341C30.001 3.86065 28.8071 2.66675 27.3343 2.66675H24.001"/><path stroke="url(#paint3_linear_3392_1513)" stroke-linejoin="round" stroke-width="1.333" d="M16 15.25C17.7949 15.25 19.25 13.7949 19.25 12C19.25 10.2051 17.7949 8.75 16 8.75C14.2051 8.75 12.75 10.2051 12.75 12C12.75 13.7949 14.2051 15.25 16 15.25Z"/><path stroke="url(#paint4_linear_3392_1513)" stroke-linejoin="round" stroke-width="1.333" d="M10.8472 23.25H21.1522C22.2941 23.25 23.1737 22.2681 22.6405 21.2584C21.856 19.7731 20.0677 18 15.9997 18C11.9317 18 10.1434 19.7731 9.35897 21.2584C8.8257 22.2681 9.70531 23.25 10.8472 23.25Z"/><path stroke="url(#paint5_linear_3392_1513)" stroke-linejoin="round" stroke-width="1.333" d="M2.66699 8.66675V5.33341C2.66699 3.86065 3.8609 2.66675 5.33366 2.66675H8.66699"/><defs><linearGradient id="paint0_linear_3392_1513" x1="3.216" x2="8.314" y1="27" y2="27.004" gradientUnits="userSpaceOnUse"><stop stop-color="#F4C587"/><stop offset=".5" stop-color="#D6D3E9"/><stop offset="1" stop-color="#99D2EC"/></linearGradient><linearGradient id="paint1_linear_3392_1513" x1="24.55" x2="29.648" y1="27" y2="27.004" gradientUnits="userSpaceOnUse"><stop stop-color="#F4C587"/><stop offset=".5" stop-color="#D6D3E9"/><stop offset="1" stop-color="#99D2EC"/></linearGradient><linearGradient id="paint2_linear_3392_1513" x1="24.55" x2="29.648" y1="5.667" y2="5.671" gradientUnits="userSpaceOnUse"><stop stop-color="#F4C587"/><stop offset=".5" stop-color="#D6D3E9"/><stop offset="1" stop-color="#99D2EC"/></linearGradient><linearGradient id="paint3_linear_3392_1513" x1="13.345" x2="18.867" y1="12" y2="12.005" gradientUnits="userSpaceOnUse"><stop stop-color="#F4C587"/><stop offset=".5" stop-color="#D6D3E9"/><stop offset="1" stop-color="#99D2EC"/></linearGradient><linearGradient id="paint4_linear_3392_1513" x1="10.445" x2="21.999" y1="20.625" y2="20.651" gradientUnits="userSpaceOnUse"><stop stop-color="#F4C587"/><stop offset=".5" stop-color="#D6D3E9"/><stop offset="1" stop-color="#99D2EC"/></linearGradient><linearGradient id="paint5_linear_3392_1513" x1="3.216" x2="8.314" y1="5.667" y2="5.671" gradientUnits="userSpaceOnUse"><stop stop-color="#F4C587"/><stop offset=".5" stop-color="#D6D3E9"/><stop offset="1" stop-color="#99D2EC"/></linearGradient></defs></svg>