<svg xmlns="http://www.w3.org/2000/svg" width="41" height="40" fill="none" viewBox="0 0 41 40"><path stroke="url(#paint0_linear_996_4296)" stroke-linecap="round" stroke-linejoin="round" stroke-width="1.6" d="M20.4765 32.0834C27.3088 32.0834 32.8475 26.6735 32.8475 20C32.8475 13.3266 27.3088 7.91671 20.4765 7.91671C13.6442 7.91671 8.10547 13.3266 8.10547 20C8.10547 26.6735 13.6442 32.0834 20.4765 32.0834Z"/><path stroke="url(#paint1_linear_996_4296)" stroke-linecap="round" stroke-linejoin="round" stroke-width="1.6" d="M26.0219 20C26.0219 27.5 22.5966 32.0834 20.4763 32.0834C18.356 32.0834 14.9307 27.5 14.9307 20C14.9307 12.5 18.356 7.91671 20.4763 7.91671C22.5966 7.91671 26.0219 12.5 26.0219 20Z"/><path stroke="url(#paint2_linear_996_4296)" stroke-linecap="round" stroke-linejoin="round" stroke-width="1.6" d="M8.53223 20H20.4767H32.4211"/><defs><linearGradient id="paint0_linear_996_4296" x1="20.477" x2="20.477" y1="7.917" y2="32.083" gradientUnits="userSpaceOnUse"><stop stop-color="#FDC067"/><stop offset=".505" stop-color="#DAD2E2"/><stop offset="1" stop-color="#7CD1ED"/></linearGradient><linearGradient id="paint1_linear_996_4296" x1="20.476" x2="20.476" y1="7.917" y2="32.083" gradientUnits="userSpaceOnUse"><stop stop-color="#FDC067"/><stop offset=".505" stop-color="#DAD2E2"/><stop offset="1" stop-color="#7CD1ED"/></linearGradient><linearGradient id="paint2_linear_996_4296" x1="20.477" x2="20.477" y1="20" y2="21" gradientUnits="userSpaceOnUse"><stop stop-color="#FDC067"/><stop offset=".505" stop-color="#DAD2E2"/><stop offset="1" stop-color="#7CD1ED"/></linearGradient></defs></svg>