<svg xmlns="http://www.w3.org/2000/svg" width="32" height="32" fill="none" viewBox="0 0 32 32"><path stroke="url(#paint0_linear_3392_1521)" stroke-linejoin="round" stroke-width="1.333" d="M2.66699 24V27.3333C2.66699 28.8061 3.8609 30 5.33366 30H8.66699"/><path stroke="url(#paint1_linear_3392_1521)" stroke-linejoin="round" stroke-width="1.333" d="M30.001 24V27.3333C30.001 28.8061 28.8071 30 27.3343 30H24.001"/><path stroke="url(#paint2_linear_3392_1521)" stroke-linejoin="round" stroke-width="1.333" d="M30.001 8.66675V5.33341C30.001 3.86065 28.8071 2.66675 27.3343 2.66675H24.001"/><path stroke="url(#paint3_linear_3392_1521)" stroke-linejoin="round" stroke-width="1.333" d="M12.8889 18H10.1111C9.49745 18 9 17.7015 9 17.3333V15.6667C9 15.2985 9.49745 15 10.1111 15H12.8889C13.5026 15 14 15.2985 14 15.6667V17.3333C14 17.7015 13.5026 18 12.8889 18Z"/><path stroke="url(#paint4_linear_3392_1521)" stroke-linejoin="round" stroke-width="1.333" d="M11.5 13C12.3284 13 13 12.3284 13 11.5C13 10.6716 12.3284 10 11.5 10C10.6716 10 10 10.6716 10 11.5C10 12.3284 10.6716 13 11.5 13Z"/><path stroke="url(#paint5_linear_3392_1521)" stroke-linejoin="round" stroke-width="1.333" d="M16.75 9.75H23.25"/><path stroke="url(#paint6_linear_3392_1521)" stroke-linejoin="round" stroke-width="1.333" d="M16.75 14.25H23.25"/><path stroke="url(#paint7_linear_3392_1521)" stroke-linejoin="round" stroke-width="1.333" d="M17 18L23 18"/><path stroke="url(#paint8_linear_3392_1521)" stroke-linejoin="round" stroke-width="1.333" d="M8.75 22.25H23.25"/><path stroke="url(#paint9_linear_3392_1521)" stroke-linejoin="round" stroke-width="1.333" d="M2.66699 8.66675V5.33341C2.66699 3.86065 3.8609 2.66675 5.33366 2.66675H8.66699"/><defs><linearGradient id="paint0_linear_3392_1521" x1="3.216" x2="8.314" y1="27" y2="27.004" gradientUnits="userSpaceOnUse"><stop stop-color="#F4C587"/><stop offset=".5" stop-color="#D6D3E9"/><stop offset="1" stop-color="#99D2EC"/></linearGradient><linearGradient id="paint1_linear_3392_1521" x1="24.55" x2="29.648" y1="27" y2="27.004" gradientUnits="userSpaceOnUse"><stop stop-color="#F4C587"/><stop offset=".5" stop-color="#D6D3E9"/><stop offset="1" stop-color="#99D2EC"/></linearGradient><linearGradient id="paint2_linear_3392_1521" x1="24.55" x2="29.648" y1="5.667" y2="5.671" gradientUnits="userSpaceOnUse"><stop stop-color="#F4C587"/><stop offset=".5" stop-color="#D6D3E9"/><stop offset="1" stop-color="#99D2EC"/></linearGradient><linearGradient id="paint3_linear_3392_1521" x1="9.458" x2="13.706" y1="16.5" y2="16.506" gradientUnits="userSpaceOnUse"><stop stop-color="#F4C587"/><stop offset=".5" stop-color="#D6D3E9"/><stop offset="1" stop-color="#99D2EC"/></linearGradient><linearGradient id="paint4_linear_3392_1521" x1="10.275" x2="12.823" y1="11.5" y2="11.502" gradientUnits="userSpaceOnUse"><stop stop-color="#F4C587"/><stop offset=".5" stop-color="#D6D3E9"/><stop offset="1" stop-color="#99D2EC"/></linearGradient><linearGradient id="paint5_linear_3392_1521" x1="17.345" x2="22.867" y1="10.25" y2="10.281" gradientUnits="userSpaceOnUse"><stop stop-color="#F4C587"/><stop offset=".5" stop-color="#D6D3E9"/><stop offset="1" stop-color="#99D2EC"/></linearGradient><linearGradient id="paint6_linear_3392_1521" x1="17.345" x2="22.867" y1="14.75" y2="14.781" gradientUnits="userSpaceOnUse"><stop stop-color="#F4C587"/><stop offset=".5" stop-color="#D6D3E9"/><stop offset="1" stop-color="#99D2EC"/></linearGradient><linearGradient id="paint7_linear_3392_1521" x1="17.549" x2="22.646" y1="18.5" y2="18.527" gradientUnits="userSpaceOnUse"><stop stop-color="#F4C587"/><stop offset=".5" stop-color="#D6D3E9"/><stop offset="1" stop-color="#99D2EC"/></linearGradient><linearGradient id="paint8_linear_3392_1521" x1="10.078" x2="22.394" y1="22.75" y2="22.905" gradientUnits="userSpaceOnUse"><stop stop-color="#F4C587"/><stop offset=".5" stop-color="#D6D3E9"/><stop offset="1" stop-color="#99D2EC"/></linearGradient><linearGradient id="paint9_linear_3392_1521" x1="3.216" x2="8.314" y1="5.667" y2="5.671" gradientUnits="userSpaceOnUse"><stop stop-color="#F4C587"/><stop offset=".5" stop-color="#D6D3E9"/><stop offset="1" stop-color="#99D2EC"/></linearGradient></defs></svg>