<svg xmlns="http://www.w3.org/2000/svg" width="24" height="24" fill="none" viewBox="0 0 24 24"><path fill="url(#paint0_linear_3392_1467)" fill-rule="evenodd" d="M15.2986 15.274C14.6483 15.7314 13.8555 16 13 16C10.7909 16 9 14.2091 9 12C9 9.79086 10.7909 8 13 8C15.2091 8 17 9.79086 17 12C17 12.8555 16.7314 13.6483 16.274 14.2986L19.2808 17.3054L18.3054 18.2808L15.2986 15.274ZM13 14.5C14.3807 14.5 15.5 13.3807 15.5 12C15.5 10.6193 14.3807 9.5 13 9.5C11.6193 9.5 10.5 10.6193 10.5 12C10.5 13.3807 11.6193 14.5 13 14.5Z" clip-rule="evenodd"/><path stroke="url(#paint1_linear_3392_1467)" stroke-linejoin="round" stroke-width="1.379" d="M2 6.82759V4.75862C2 3.23508 3.23508 2 4.75862 2H6.82759"/><path stroke="url(#paint2_linear_3392_1467)" stroke-linejoin="round" stroke-width="1.379" d="M2 17.1724V19.2413C2 20.7649 3.23508 21.9999 4.75862 21.9999H6.82759"/><path stroke="url(#paint3_linear_3392_1467)" stroke-linejoin="round" stroke-width="1.379" d="M21.9995 6.82759V4.75862C21.9995 3.23508 20.7644 2 19.2408 2H17.1719"/><defs><linearGradient id="paint0_linear_3392_1467" x1="9.941" x2="18.675" y1="13.14" y2="13.148" gradientUnits="userSpaceOnUse"><stop stop-color="#F4C587"/><stop offset=".5" stop-color="#D6D3E9"/><stop offset="1" stop-color="#99D2EC"/></linearGradient><linearGradient id="paint1_linear_3392_1467" x1="2.442" x2="6.543" y1="4.414" y2="4.417" gradientUnits="userSpaceOnUse"><stop stop-color="#F4C587"/><stop offset=".5" stop-color="#D6D3E9"/><stop offset="1" stop-color="#99D2EC"/></linearGradient><linearGradient id="paint2_linear_3392_1467" x1="2.442" x2="6.543" y1="19.586" y2="19.59" gradientUnits="userSpaceOnUse"><stop stop-color="#F4C587"/><stop offset=".5" stop-color="#D6D3E9"/><stop offset="1" stop-color="#99D2EC"/></linearGradient><linearGradient id="paint3_linear_3392_1467" x1="17.614" x2="21.715" y1="4.414" y2="4.417" gradientUnits="userSpaceOnUse"><stop stop-color="#F4C587"/><stop offset=".5" stop-color="#D6D3E9"/><stop offset="1" stop-color="#99D2EC"/></linearGradient></defs></svg>