<svg xmlns="http://www.w3.org/2000/svg" xmlns:svg="http://www.w3.org/2000/svg" xmlns:xlink="http://www.w3.org/1999/xlink" id="svg240" width="24" height="25" fill="none" version="1.1" viewBox="0 0 24 25"><defs id="defs238"><linearGradient id="linearGradient2006"><stop style="stop-color:#f4c587;stop-opacity:1" id="stop2002" offset="0"/><stop style="stop-color:#d6d3e9;stop-opacity:1" id="stop4188" offset=".5"/><stop style="stop-color:#99d2ec;stop-opacity:1" id="stop2004" offset="1"/></linearGradient><linearGradient id="linearGradient2008" x1="4.497" x2="18.92" y1="12" y2="13.289" gradientUnits="userSpaceOnUse" xlink:href="#linearGradient2006"/><linearGradient id="linearGradient11778" x1="2.058" x2="20.828" y1="12.563" y2="12.586" gradientTransform="translate(1.4586669,-2.1072951)" gradientUnits="userSpaceOnUse" xlink:href="#linearGradient2006"/><linearGradient id="linearGradient11786" x1="2.161" x2="22.181" y1="12.455" y2="12.455" gradientUnits="userSpaceOnUse" xlink:href="#linearGradient2006"/></defs><path id="path1837-2" d="m 6.4283723,17.226027 c 0,0 1.3536378,0.73191 3.7070597,0.897404 M 6.4283723,11.121178 c 0,0 1.3536378,0.731909 3.7070597,0.897403 m 9.361227,6.847703 c 0,0 0,3.097641 -7.474599,3.097641 -7.5254005,0 -7.5254005,-3.130625 -7.5254005,-3.130625 V 12.5 M 11.996959,3 c 7.5002,0 7.5002,3.16667 7.5002,3.16667 0,0 0,3.16666 -7.5002,3.16666 -7.5002995,0 -7.5002995,-3.16666 -7.5002995,-3.16666 0,0 0,-3.16667 7.5002995,-3.16667 z M 4.4966595,6 v 6 c 0,0 0,3 7.5000005,3 7.518838,0 6.97528,-2.416576 7.50668,-2.455576 M 19.496659,6 v 12.866284" style="display:none;fill:none;fill-opacity:1;stroke:url(#linearGradient2008);stroke-width:1.00157;stroke-linecap:round;stroke-linejoin:round;stroke-dasharray:none;stroke-opacity:1;paint-order:stroke markers fill"/><circle style="fill:none;fill-opacity:1;stroke:url(#linearGradient11786);stroke-width:1.15808;stroke-linecap:round;stroke-linejoin:round;stroke-dasharray:none;stroke-opacity:1;paint-order:stroke markers fill" id="path11531" cx="12.171" cy="12.455" r="9.431"/><text style="font-weight:700;font-size:10.6667px;font-family:Comfortaa;-inkscape-font-specification:'Comfortaa Bold';fill:url(#linearGradient11778);fill-opacity:1;stroke:none;stroke-width:1.00157;stroke-linecap:round;stroke-linejoin:round;stroke-dasharray:none;stroke-opacity:1;paint-order:stroke markers fill" id="text11587" x="9.083" y="16.751" xml:space="preserve"><tspan id="tspan11585" x="9.083" y="16.751" style="font-size:10.6667px;fill:url(#linearGradient11778);fill-opacity:1;stroke:none">?</tspan></text></svg>